<svg width="20" height="20" viewBox="0 0 20 20" fill="none" xmlns="http://www.w3.org/2000/svg">
<path d="M6.6665 11.6666C6.6665 11.2083 7.0415 10.8333 7.49984 10.8333C7.95817 10.8333 8.33317 11.2083 8.33317 11.6666C8.33317 12.125 7.95817 12.5 7.49984 12.5C7.0415 12.5 6.6665 12.125 6.6665 11.6666ZM9.99984 12.5C10.4582 12.5 10.8332 12.125 10.8332 11.6666C10.8332 11.2083 10.4582 10.8333 9.99984 10.8333C9.5415 10.8333 9.1665 11.2083 9.1665 11.6666C9.1665 12.125 9.5415 12.5 9.99984 12.5ZM12.4998 12.5C12.9582 12.5 13.3332 12.125 13.3332 11.6666C13.3332 11.2083 12.9582 10.8333 12.4998 10.8333C12.0415 10.8333 11.6665 11.2083 11.6665 11.6666C11.6665 12.125 12.0415 12.5 12.4998 12.5ZM9.99984 6.24996C8.53317 6.24996 7.3165 7.34163 7.1165 8.74996H12.8915C12.6832 7.34163 11.4665 6.24996 9.99984 6.24996V6.24996ZM9.99984 4.99996C12.2998 4.99996 14.1665 6.86663 14.1665 9.16663V9.99996H5.83317V9.16663C5.83317 6.86663 7.69984 4.99996 9.99984 4.99996ZM7.49984 15C7.95817 15 8.33317 14.625 8.33317 14.1666C8.33317 13.7083 7.95817 13.3333 7.49984 13.3333C7.0415 13.3333 6.6665 13.7083 6.6665 14.1666C6.6665 14.625 7.0415 15 7.49984 15ZM9.99984 15C10.4582 15 10.8332 14.625 10.8332 14.1666C10.8332 13.7083 10.4582 13.3333 9.99984 13.3333C9.5415 13.3333 9.1665 13.7083 9.1665 14.1666C9.1665 14.625 9.5415 15 9.99984 15ZM12.4998 15C12.9582 15 13.3332 14.625 13.3332 14.1666C13.3332 13.7083 12.9582 13.3333 12.4998 13.3333C12.0415 13.3333 11.6665 13.7083 11.6665 14.1666C11.6665 14.625 12.0415 15 12.4998 15ZM16.6665 3.33329H3.33317V16.6666H16.6665V3.33329ZM16.6665 1.66663C17.5832 1.66663 18.3332 2.41663 18.3332 3.33329V16.6666C18.3332 17.5833 17.5832 18.3333 16.6665 18.3333H3.33317C2.4165 18.3333 1.6665 17.5833 1.6665 16.6666V3.33329C1.6665 2.41663 2.4165 1.66663 3.33317 1.66663H16.6665Z" fill="#424242"/>
</svg>
