<svg width="115" height="32" viewBox="0 0 115 32" fill="none" xmlns="http://www.w3.org/2000/svg">
<path d="M44.7381 23.288C43.5221 23.288 42.4501 23.024 41.5221 22.496C40.5941 21.968 39.8581 21.232 39.3141 20.288C38.7861 19.344 38.5221 18.264 38.5221 17.048C38.5221 15.832 38.7861 14.752 39.3141 13.808C39.8581 12.864 40.5941 12.128 41.5221 11.6C42.4501 11.072 43.5221 10.808 44.7381 10.808C46.2581 10.808 47.5381 11.208 48.5781 12.008C49.6181 12.792 50.2821 13.88 50.5701 15.272H47.3301C47.1701 14.696 46.8501 14.248 46.3701 13.928C45.9061 13.592 45.3541 13.424 44.7141 13.424C43.8661 13.424 43.1461 13.744 42.5541 14.384C41.9621 15.024 41.6661 15.912 41.6661 17.048C41.6661 18.184 41.9621 19.072 42.5541 19.712C43.1461 20.352 43.8661 20.672 44.7141 20.672C45.3541 20.672 45.9061 20.512 46.3701 20.192C46.8501 19.872 47.1701 19.416 47.3301 18.824H50.5701C50.2821 20.168 49.6181 21.248 48.5781 22.064C47.5381 22.88 46.2581 23.288 44.7381 23.288ZM57.8087 23.288C56.6567 23.288 55.6167 23.024 54.6887 22.496C53.7767 21.968 53.0487 21.24 52.5047 20.312C51.9767 19.368 51.7127 18.28 51.7127 17.048C51.7127 15.816 51.9847 14.736 52.5287 13.808C53.0727 12.864 53.8007 12.128 54.7127 11.6C55.6407 11.072 56.6807 10.808 57.8327 10.808C58.9687 10.808 59.9927 11.072 60.9047 11.6C61.8327 12.128 62.5607 12.864 63.0887 13.808C63.6327 14.736 63.9047 15.816 63.9047 17.048C63.9047 18.28 63.6327 19.368 63.0887 20.312C62.5607 21.24 61.8327 21.968 60.9047 22.496C59.9767 23.024 58.9447 23.288 57.8087 23.288ZM57.8087 20.624C58.6087 20.624 59.3047 20.328 59.8967 19.736C60.4887 19.128 60.7847 18.232 60.7847 17.048C60.7847 15.864 60.4887 14.976 59.8967 14.384C59.3047 13.776 58.6167 13.472 57.8327 13.472C57.0167 13.472 56.3127 13.776 55.7207 14.384C55.1447 14.976 54.8567 15.864 54.8567 17.048C54.8567 18.232 55.1447 19.128 55.7207 19.736C56.3127 20.328 57.0087 20.624 57.8087 20.624ZM65.4514 23V11.096H68.1874L68.4754 13.328C68.9074 12.56 69.4914 11.952 70.2274 11.504C70.9794 11.04 71.8594 10.808 72.8674 10.808V14.048H72.0034C71.3314 14.048 70.7314 14.152 70.2034 14.36C69.6754 14.568 69.2594 14.928 68.9554 15.44C68.6674 15.952 68.5234 16.664 68.5234 17.576V23H65.4514ZM73.767 23V11.096H76.479L76.719 13.112C77.087 12.408 77.615 11.848 78.303 11.432C79.007 11.016 79.831 10.808 80.775 10.808C82.247 10.808 83.391 11.272 84.207 12.2C85.023 13.128 85.431 14.488 85.431 16.28V23H82.359V16.568C82.359 15.544 82.151 14.76 81.735 14.216C81.319 13.672 80.671 13.4 79.791 13.4C78.927 13.4 78.215 13.704 77.655 14.312C77.111 14.92 76.839 15.768 76.839 16.856V23H73.767ZM87.1686 23V5.72H90.2406V23H87.1686ZM97.9635 23.288C96.7635 23.288 95.6995 23.032 94.7715 22.52C93.8435 22.008 93.1155 21.288 92.5875 20.36C92.0595 19.432 91.7955 18.36 91.7955 17.144C91.7955 15.912 92.0515 14.816 92.5635 13.856C93.0915 12.896 93.8115 12.152 94.7235 11.624C95.6515 11.08 96.7395 10.808 97.9875 10.808C99.1555 10.808 100.188 11.064 101.084 11.576C101.98 12.088 102.676 12.792 103.172 13.688C103.684 14.568 103.94 15.552 103.94 16.64C103.94 16.816 103.932 17 103.916 17.192C103.916 17.384 103.908 17.584 103.892 17.792H94.8435C94.9075 18.72 95.2275 19.448 95.8035 19.976C96.3955 20.504 97.1075 20.768 97.9395 20.768C98.5635 20.768 99.0835 20.632 99.4995 20.36C99.9315 20.072 100.252 19.704 100.46 19.256H103.58C103.356 20.008 102.98 20.696 102.452 21.32C101.94 21.928 101.3 22.408 100.532 22.76C99.7795 23.112 98.9235 23.288 97.9635 23.288ZM97.9875 13.304C97.2355 13.304 96.5715 13.52 95.9955 13.952C95.4195 14.368 95.0515 15.008 94.8915 15.872H100.82C100.772 15.088 100.484 14.464 99.9555 14C99.4275 13.536 98.7715 13.304 97.9875 13.304ZM110.416 23C109.168 23 108.168 22.696 107.416 22.088C106.664 21.48 106.288 20.4 106.288 18.848V13.664H104.248V11.096H106.288L106.648 7.904H109.36V11.096H112.576V13.664H109.36V18.872C109.36 19.448 109.48 19.848 109.72 20.072C109.976 20.28 110.408 20.384 111.016 20.384H112.504V23H110.416Z" fill="#4F4F4F"/>
<path d="M12 11.3333H20V14H12V11.3333ZM20.8533 16H11.16C10.52 16 10 16.52 10 17.16H10.0133V18.6666H22.0133V17.16C22.0133 16.52 21.4933 16 20.8533 16V16Z" fill="url(#paint0_linear_1282_1766)"/>
<path d="M26.6665 2.66669H5.33317C3.8665 2.66669 2.6665 3.86669 2.6665 5.33335V26.6667C2.6665 28.1334 3.8665 29.3334 5.33317 29.3334H26.6665C28.1332 29.3334 29.3332 28.1334 29.3332 26.6667V5.33335C29.3332 3.86669 28.1332 2.66669 26.6665 2.66669ZM23.9998 22.6667H21.9998V20.6667H9.99984V22.6667H7.99984V17.16C7.99984 15.8267 8.8265 14.6934 9.99984 14.2267V12C9.99984 10.5334 11.1998 9.33335 12.6665 9.33335H19.3332C20.7998 9.33335 21.9998 10.5334 21.9998 12V14.2267C23.1732 14.6934 23.9998 15.8267 23.9998 17.16V22.6667Z" fill="url(#paint1_linear_1282_1766)"/>
<defs>
<linearGradient id="paint0_linear_1282_1766" x1="9.32425" y1="10.9758" x2="18.1714" y2="23.7695" gradientUnits="userSpaceOnUse">
<stop stop-color="#FF5B63"/>
<stop offset="1" stop-color="#FC9163"/>
</linearGradient>
<linearGradient id="paint1_linear_1282_1766" x1="1.16651" y1="1.36668" x2="35.2857" y2="31.485" gradientUnits="userSpaceOnUse">
<stop stop-color="#FF5B63"/>
<stop offset="1" stop-color="#FC9163"/>
</linearGradient>
</defs>
</svg>
