<svg width="20" height="20" viewBox="0 0 20 20" fill="none" xmlns="http://www.w3.org/2000/svg">
<path d="M8.5415 10.8333C8.5415 11.4083 8.07484 11.875 7.49984 11.875C6.92484 11.875 6.45817 11.4083 6.45817 10.8333C6.45817 10.2583 6.92484 9.79163 7.49984 9.79163C8.07484 9.79163 8.5415 10.2583 8.5415 10.8333ZM12.4998 9.79163C11.9248 9.79163 11.4582 10.2583 11.4582 10.8333C11.4582 11.4083 11.9248 11.875 12.4998 11.875C13.0748 11.875 13.5415 11.4083 13.5415 10.8333C13.5415 10.2583 13.0748 9.79163 12.4998 9.79163ZM18.3332 9.99996C18.3332 14.6 14.5998 18.3333 9.99984 18.3333C5.39984 18.3333 1.6665 14.6 1.6665 9.99996C1.6665 5.39996 5.39984 1.66663 9.99984 1.66663C14.5998 1.66663 18.3332 5.39996 18.3332 9.99996ZM8.88317 3.43329C10.0498 5.36663 12.1665 6.66663 14.5832 6.66663C14.9665 6.66663 15.3415 6.62496 15.6998 6.56663C14.5332 4.63329 12.4165 3.33329 9.99984 3.33329C9.6165 3.33329 9.2415 3.37496 8.88317 3.43329ZM3.68317 7.89163C5.10817 7.08329 6.20817 5.76663 6.73317 4.19163C5.30817 4.99996 4.20817 6.31663 3.68317 7.89163ZM16.6665 9.99996C16.6665 9.34996 16.5665 8.72496 16.3915 8.13329C15.8082 8.25829 15.2082 8.33329 14.5832 8.33329C11.9748 8.33329 9.64984 7.13329 8.1165 5.25829C7.2415 7.39163 5.49984 9.06663 3.33317 9.88329C3.3415 9.91663 3.33317 9.95829 3.33317 9.99996C3.33317 13.675 6.32484 16.6666 9.99984 16.6666C13.6748 16.6666 16.6665 13.675 16.6665 9.99996Z" fill="#424242"/>
</svg>
