<svg width="49" height="49" viewBox="0 0 49 49" fill="none" xmlns="http://www.w3.org/2000/svg">
<rect x="4.09521" y="4.09528" width="41.1429" height="41.1429" fill="white"/>
<path d="M17.4667 16.2667H31.8667V21.0667H17.4667V16.2667ZM33.4027 24.6667H15.9547C14.8027 24.6667 13.8667 25.6027 13.8667 26.7547H13.8907V29.4667H35.4907V26.7547C35.4907 25.6027 34.5547 24.6667 33.4027 24.6667V24.6667Z" fill="url(#paint0_linear_1282_1755)"/>
<path d="M43.8665 0.666748H5.4665C2.8265 0.666748 0.666504 2.82675 0.666504 5.46675V43.8667C0.666504 46.5067 2.8265 48.6667 5.4665 48.6667H43.8665C46.5065 48.6667 48.6665 46.5067 48.6665 43.8667V5.46675C48.6665 2.82675 46.5065 0.666748 43.8665 0.666748ZM39.0665 36.6667H35.4665V33.0667H13.8665V36.6667H10.2665V26.7547C10.2665 24.3547 11.7545 22.3147 13.8665 21.4747V17.4667C13.8665 14.8267 16.0265 12.6667 18.6665 12.6667H30.6665C33.3065 12.6667 35.4665 14.8267 35.4665 17.4667V21.4747C37.5785 22.3147 39.0665 24.3547 39.0665 26.7547V36.6667Z" fill="url(#paint1_linear_1282_1755)"/>
<defs>
<linearGradient id="paint0_linear_1282_1755" x1="12.6504" y1="15.6232" x2="28.5752" y2="38.6519" gradientUnits="userSpaceOnUse">
<stop stop-color="#FF5B63"/>
<stop offset="1" stop-color="#FC9163"/>
</linearGradient>
<linearGradient id="paint1_linear_1282_1755" x1="-2.03349" y1="-1.67326" x2="59.3811" y2="52.5398" gradientUnits="userSpaceOnUse">
<stop stop-color="#FF5B63"/>
<stop offset="1" stop-color="#FC9163"/>
</linearGradient>
</defs>
</svg>
